<svg class="ico" viewBox="0 0 18 18" fill="none" xmlns="http://www.w3.org/2000/svg"><path d="M13.1053 3.375H12.4415C12.2867 2.3175 11.3735 1.5 10.2632 1.5H7.73685C6.62653 1.5 5.71327 2.3175 5.55852 3.375H4.89474C3.85012 3.375 3 4.21626 3 5.25V14.625C3 15.6587 3.85012 16.5 4.89474 16.5H13.1053C14.1499 16.5 15 15.6587 15 14.625V5.25C15 4.21626 14.1499 3.375 13.1053 3.375ZM7.73682 2.75001H10.2631C10.7854 2.75001 11.2105 3.17062 11.2105 3.68751C11.2105 4.20439 10.7854 4.62501 10.2631 4.62501H7.73682C7.21449 4.62501 6.78945 4.20439 6.78945 3.68751C6.78945 3.17062 7.21452 2.75001 7.73682 2.75001ZM13.7368 14.625C13.7368 14.97 13.4532 15.25 13.1053 15.25H4.89471C4.54673 15.25 4.26314 14.97 4.26314 14.625V5.25C4.26314 4.905 4.54673 4.62501 4.89471 4.62501H5.74796C6.10417 5.36127 6.85828 5.87502 7.73682 5.87502H10.2631C11.1417 5.87502 11.8958 5.36127 12.252 4.62501H13.1052C13.4532 4.62501 13.7368 4.905 13.7368 5.25V14.625H13.7368Z" fill="currentColor"/><path d="M7.3125 9.375H10.6875C10.7911 9.375 10.875 9.45895 10.875 9.5625C10.875 9.66605 10.7911 9.75 10.6875 9.75H7.3125C7.20895 9.75 7.125 9.66605 7.125 9.5625C7.125 9.45895 7.20895 9.375 7.3125 9.375Z" fill="currentColor"/><path d="M7.3125 9.375H10.6875C10.7911 9.375 10.875 9.45895 10.875 9.5625C10.875 9.66605 10.7911 9.75 10.6875 9.75H7.3125C7.20895 9.75 7.125 9.66605 7.125 9.5625C7.125 9.45895 7.20895 9.375 7.3125 9.375Z" stroke="currentColor" stroke-width="0.5625"/><path d="M7.3125 11.25H10.6875C10.7911 11.25 10.875 11.3339 10.875 11.4375C10.875 11.5411 10.7911 11.625 10.6875 11.625H7.3125C7.20895 11.625 7.125 11.5411 7.125 11.4375C7.125 11.3339 7.20895 11.25 7.3125 11.25Z" fill="currentColor"/><path d="M7.3125 11.25H10.6875C10.7911 11.25 10.875 11.3339 10.875 11.4375C10.875 11.5411 10.7911 11.625 10.6875 11.625H7.3125C7.20895 11.625 7.125 11.5411 7.125 11.4375C7.125 11.3339 7.20895 11.25 7.3125 11.25Z" stroke="currentColor" stroke-width="0.5625"/><path d="M9 9V12.75" stroke="currentColor" stroke-width="1.125" stroke-linecap="round"/><path d="M7.5 7.5L9 9L10.5 7.5" stroke="currentColor" stroke-width="1.125" stroke-linecap="round"/></svg>