<svg class="ico" viewBox="0 0 18 18" fill="none" xmlns="http://www.w3.org/2000/svg"><path id="Subtract" d="M11.25 1.5C12.4926 1.5 13.5 2.50736 13.5 3.75V4.63086C14.3734 4.93999 15 5.77067 15 6.75V14.25C15 15.4926 13.9926 16.5 12.75 16.5H5.25C4.00736 16.5 3 15.4926 3 14.25V3.75C3 2.50736 4.00736 1.5 5.25 1.5H11.25ZM4.125 5.625V13.875C4.125 14.7034 4.79657 15.375 5.625 15.375H12.375C13.2034 15.375 13.875 14.7034 13.875 13.875V7.125C13.875 6.29657 13.2034 5.625 12.375 5.625H4.125ZM5.25 2.625C4.83579 2.625 4.5 2.96079 4.5 3.375C4.5 3.78921 4.83579 4.125 5.25 4.125H12V3.375C12 2.96079 11.6642 2.625 11.25 2.625H5.25Z" fill="currentColor"/><path id="Rectangle 46" d="M5.25 8.0625C5.25 7.75184 5.50184 7.5 5.8125 7.5H12.1875C12.4982 7.5 12.75 7.75184 12.75 8.0625C12.75 8.37316 12.4982 8.625 12.1875 8.625H5.8125C5.50184 8.625 5.25 8.37316 5.25 8.0625Z" fill="currentColor"/><path id="Rectangle 47" d="M5.25 10.3125C5.25 10.0018 5.50184 9.75 5.8125 9.75H9.1875C9.49816 9.75 9.75 10.0018 9.75 10.3125C9.75 10.6232 9.49816 10.875 9.1875 10.875H5.8125C5.50184 10.875 5.25 10.6232 5.25 10.3125Z" fill="currentColor"/></svg>