<svg class="ico" viewBox="0 0 18 18" fill="none" xmlns="http://www.w3.org/2000/svg"><path d="M6 8.0625C6 7.75184 6.25184 7.5 6.5625 7.5H11.4375C11.7482 7.5 12 7.75184 12 8.0625C12 8.37316 11.7482 8.625 11.4375 8.625H6.5625C6.25184 8.625 6 8.37316 6 8.0625Z" fill="currentColor"/><path d="M6.75 10.3125C6.75 10.0018 7.00184 9.75 7.3125 9.75H10.6875C10.9982 9.75 11.25 10.0018 11.25 10.3125C11.25 10.6232 10.9982 10.875 10.6875 10.875H7.3125C7.00184 10.875 6.75 10.6232 6.75 10.3125Z" fill="currentColor"/><path d="M13.1053 3.375H12.4415C12.2867 2.3175 11.3735 1.5 10.2632 1.5H7.73685C6.62653 1.5 5.71327 2.3175 5.55852 3.375H4.89474C3.85012 3.375 3 4.21626 3 5.25V14.625C3 15.6587 3.85012 16.5 4.89474 16.5H13.1053C14.1499 16.5 15 15.6587 15 14.625V5.25C15 4.21626 14.1499 3.375 13.1053 3.375ZM7.73682 2.75001H10.2631C10.7854 2.75001 11.2105 3.17062 11.2105 3.68751C11.2105 4.20439 10.7854 4.62501 10.2631 4.62501H7.73682C7.21449 4.62501 6.78945 4.20439 6.78945 3.68751C6.78945 3.17062 7.21452 2.75001 7.73682 2.75001ZM13.7368 14.625C13.7368 14.97 13.4532 15.25 13.1053 15.25H4.89471C4.54673 15.25 4.26314 14.97 4.26314 14.625V5.25C4.26314 4.905 4.54673 4.62501 4.89471 4.62501H5.74796C6.10417 5.36127 6.85828 5.87502 7.73682 5.87502H10.2631C11.1417 5.87502 11.8958 5.36127 12.252 4.62501H13.1052C13.4532 4.62501 13.7368 4.905 13.7368 5.25V14.625H13.7368Z" fill="currentColor"/></svg>